# xmcd
#
# Track frame offsets:
#	150
#	16328
#	29228
#	43964
#	60795
#	77377
#	90235
#	101955
#	114194
#	129597
#	142404
#	157491
#	171662
#	197579
#
# Disc length: 2833 seconds
# Revision: 3
# Processed by: cddbd v1.5.2PL0 Copyright (c) Steve Scherf et al.
# Submitted via: dBpowerAMP V12.0
#
DISCID=c50b0f0e
DTITLE=Big Smo - Kuntry Livin’
DYEAR=2014
DGENRE=Country Rap
TTITLE0=Workin’
TTITLE1=Bumpy Road
TTITLE2=Hick Ross
TTITLE3=Anything Goes
TTITLE4=Cover My Eyes
TTITLE5=Down in the Backwoods
TTITLE6=Come On
TTITLE7=Redneck Rich
TTITLE8=Who I’ll Be
TTITLE9=Got Me
TTITLE10=Ain’t Nothin’ Free
TTITLE11=I’m So Kuntry
TTITLE12=Lawdy Lawdy
TTITLE13=My Place
EXTD=
EXTT0=
EXTT1=
EXTT2=
EXTT3=
EXTT4=
EXTT5=
EXTT6=
EXTT7=
EXTT8=
EXTT9=
EXTT10=
EXTT11=
EXTT12=
EXTT13=
PLAYORDER=
